# Blender v2.93.3 OBJ File: '2hearts.blend'
# www.blender.org
mtllib 2heartsAni.mtl
o Plane.001
v -0.024912 0.046246 0.000253
v -0.057495 0.040010 0.000253
v -0.042035 -0.046359 0.000253
v -0.042299 0.047056 0.000253
v -0.007779 0.033750 0.000253
v -0.004759 -0.013189 0.000253
v -0.037877 0.022307 0.007452
v -0.036434 -0.013189 0.007452
v -0.054394 -0.030956 0.007452
v -0.032472 0.004272 0.007452
v -0.001128 0.007822 0.000253
v -0.020917 0.027356 0.007452
v -0.012972 0.006481 0.007452
v -0.047080 -0.039977 0.007452
v -0.019049 -0.013189 0.007452
v -0.041574 0.036132 0.007452
v -0.050011 0.032996 0.007452
v -0.028392 0.034243 0.007452
v -0.013186 0.032056 0.003852
v -0.045207 -0.046087 0.003852
v -0.005450 0.007251 0.003852
v -0.010595 -0.014310 0.003852
v -0.042429 0.043760 0.003852
v -0.054955 0.038363 0.003852
v -0.026228 0.042329 0.003852
v -0.114191 0.046246 0.000253
v -0.081609 0.040010 0.000253
v -0.097068 -0.046359 0.000253
v -0.096805 0.047056 0.000253
v -0.131324 0.033750 0.000253
v -0.134344 -0.013189 0.000253
v -0.101226 0.022307 0.007452
v -0.102670 -0.013189 0.007452
v -0.084709 -0.030956 0.007452
v -0.106631 0.004272 0.007452
v -0.137976 0.007822 0.000253
v -0.118186 0.027356 0.007452
v -0.126131 0.006481 0.007452
v -0.092024 -0.039977 0.007452
v -0.120055 -0.013189 0.007452
v -0.097529 0.036132 0.007452
v -0.089092 0.032996 0.007452
v -0.110712 0.034243 0.007452
v -0.125917 0.032056 0.003852
v -0.093896 -0.046087 0.003852
v -0.133653 0.007251 0.003852
v -0.128508 -0.014310 0.003852
v -0.096674 0.043760 0.003852
v -0.084149 0.038363 0.003852
v -0.112875 0.042329 0.003852
v -0.067895 0.022307 0.007452
v -0.071073 0.022307 0.007452
v -0.071061 0.023132 0.007452
v -0.068017 0.023146 0.007452
v -0.068234 0.029170 0.003852
v -0.070830 0.029143 0.003852
v -0.070688 0.031025 0.000253
v -0.068367 0.031056 0.000253
v -0.024912 0.046246 -0.010355
v -0.057495 0.040010 -0.010355
v -0.042035 -0.046359 -0.010355
v -0.042299 0.047056 -0.010355
v -0.007779 0.033750 -0.010355
v -0.004759 -0.013189 -0.010355
v -0.001128 0.007822 -0.010355
v -0.114191 0.046246 -0.010355
v -0.081609 0.040010 -0.010355
v -0.097068 -0.046359 -0.010355
v -0.096805 0.047056 -0.010355
v -0.131324 0.033750 -0.010355
v -0.134344 -0.013189 -0.010355
v -0.137976 0.007822 -0.010355
v -0.070688 0.031025 -0.010355
v -0.068367 0.031056 -0.010355
v -0.069036 -0.037856 0.007452
v -0.070067 -0.037856 0.007452
v -0.070050 -0.061872 0.000253
v -0.069054 -0.061872 0.000253
v -0.069036 -0.019926 0.007452
v -0.070068 -0.019926 0.007452
v -0.069040 0.002258 0.007452
v -0.070062 0.002258 0.007452
v -0.070064 -0.049110 0.007452
v -0.069039 -0.049110 0.007452
v -0.070057 -0.059138 0.003852
v -0.069046 -0.059138 0.003852
v -0.069061 0.030599 0.000253
v -0.070042 0.030599 0.000253
v -0.070041 0.028597 0.003852
v -0.069063 0.028596 0.003852
v -0.069043 0.020947 0.007452
v -0.070059 0.020999 0.007452
v -0.070035 0.022801 0.007149
v -0.069068 0.022803 0.007146
v -0.070055 0.022063 0.007244
v -0.069047 0.022054 0.007236
v -0.069055 -0.061873 -0.010355
v -0.070048 -0.061873 -0.010355
v -0.070041 0.030598 -0.010355
v -0.069063 0.030598 -0.010355
v 0.115664 0.046246 0.000253
v 0.083081 0.040010 0.000253
v 0.098541 -0.046359 0.000253
v 0.098277 0.047056 0.000253
v 0.132796 0.033750 0.000253
v 0.135816 -0.013189 0.000253
v 0.102698 0.022307 0.007452
v 0.104142 -0.013189 0.007452
v 0.086181 -0.030956 0.007452
v 0.108103 0.004272 0.007452
v 0.139448 0.007822 0.000253
v 0.119658 0.027356 0.007452
v 0.127603 0.006481 0.007452
v 0.093496 -0.039977 0.007452
v 0.121527 -0.013189 0.007452
v 0.099002 0.036132 0.007452
v 0.090564 0.032996 0.007452
v 0.112184 0.034243 0.007452
v 0.127389 0.032056 0.003852
v 0.095368 -0.046087 0.003852
v 0.135126 0.007251 0.003852
v 0.129980 -0.014310 0.003852
v 0.098146 0.043760 0.003852
v 0.085621 0.038363 0.003852
v 0.114348 0.042329 0.003852
v 0.026384 0.046246 0.000253
v 0.058967 0.040010 0.000253
v 0.043507 -0.046359 0.000253
v 0.043771 0.047056 0.000253
v 0.009252 0.033750 0.000253
v 0.006232 -0.013189 0.000253
v 0.039350 0.022307 0.007452
v 0.037906 -0.013189 0.007452
v 0.055867 -0.030956 0.007452
v 0.033945 0.004272 0.007452
v 0.002600 0.007822 0.000253
v 0.022390 0.027356 0.007452
v 0.014444 0.006481 0.007452
v 0.048552 -0.039977 0.007452
v 0.020521 -0.013189 0.007452
v 0.043046 0.036132 0.007452
v 0.051483 0.032996 0.007452
v 0.029864 0.034243 0.007452
v 0.014659 0.032056 0.003852
v 0.046680 -0.046087 0.003852
v 0.006922 0.007251 0.003852
v 0.012068 -0.014310 0.003852
v 0.043901 0.043760 0.003852
v 0.056427 0.038363 0.003852
v 0.027700 0.042329 0.003852
v 0.072680 0.022307 0.007452
v 0.069503 0.022307 0.007452
v 0.069515 0.023132 0.007452
v 0.072558 0.023146 0.007452
v 0.072341 0.029170 0.003852
v 0.069746 0.029143 0.003852
v 0.069887 0.031025 0.000253
v 0.072209 0.031056 0.000253
v 0.115664 0.046246 -0.010355
v 0.083081 0.040010 -0.010355
v 0.098541 -0.046359 -0.010355
v 0.098277 0.047056 -0.010355
v 0.132796 0.033750 -0.010355
v 0.135816 -0.013189 -0.010355
v 0.139448 0.007822 -0.010355
v 0.026384 0.046246 -0.010355
v 0.058967 0.040010 -0.010355
v 0.043507 -0.046359 -0.010355
v 0.043771 0.047056 -0.010355
v 0.009252 0.033750 -0.010355
v 0.006232 -0.013189 -0.010355
v 0.002600 0.007822 -0.010355
v 0.069887 0.031025 -0.010355
v 0.072209 0.031056 -0.010355
v 0.071539 -0.037856 0.007452
v 0.070509 -0.037856 0.007452
v 0.070526 -0.061872 0.000253
v 0.071522 -0.061872 0.000253
v 0.071540 -0.019926 0.007452
v 0.070508 -0.019926 0.007452
v 0.071536 0.002258 0.007452
v 0.070514 0.002258 0.007452
v 0.070511 -0.049110 0.007452
v 0.071537 -0.049110 0.007452
v 0.070518 -0.059138 0.003852
v 0.071529 -0.059138 0.003852
v 0.071514 0.030599 0.000253
v 0.070533 0.030599 0.000253
v 0.070535 0.028597 0.003852
v 0.071513 0.028596 0.003852
v 0.071533 0.020947 0.007452
v 0.070517 0.020999 0.007452
v 0.070541 0.022801 0.007149
v 0.071507 0.022803 0.007146
v 0.070521 0.022063 0.007244
v 0.071529 0.022054 0.007236
v 0.071521 -0.061873 -0.010355
v 0.070527 -0.061873 -0.010355
v 0.070535 0.030598 -0.010355
v 0.071513 0.030598 -0.010355
vt 0.250000 0.666667
vt 0.250000 0.841008
vt 0.355566 0.828337
vt 0.049103 0.666667
vt 0.061636 0.898499
vt 0.123272 0.796998
vt 0.098206 0.666667
vt 0.056392 0.333333
vt 0.112784 0.333333
vt 0.300505 0.079599
vt 0.275253 0.039799
vt 0.047235 0.514000
vt 0.094470 0.517168
vt 0.000000 0.000000
vt 0.000000 0.000000
vt 0.047144 0.094288
vt 0.041164 0.085495
vt 0.403892 0.246118
vt 0.404317 0.333333
vt 0.250000 0.333333
vt 0.250000 0.527601
vt 0.250000 0.333333
vt 0.250000 0.000000
vt 0.495475 0.000000
vt 0.495487 0.000000
vt 0.250000 0.000000
vt 0.000000 0.510831
vt 0.000000 0.666667
vt 0.020336 0.040672
vt 0.049146 0.098293
vt 0.049146 0.098293
vt 0.020266 0.040533
vt 0.408281 0.247397
vt 0.501962 0.193656
vt 0.500000 0.333333
vt 0.250000 0.527601
vt 0.249219 0.336395
vt 0.404492 0.335829
vt 0.416988 0.514645
vt 0.405054 0.244373
vt 0.427783 0.914169
vt 0.250000 0.920504
vt 0.397944 0.679360
vt 0.393629 0.666667
vt 0.000000 1.000000
vt 0.250000 1.000000
vt 0.500000 1.000000
vt 0.275253 0.039799
vt 0.250457 0.000720
vt 0.500000 0.001052
vt 0.500000 0.050649
vt 0.000000 0.333333
vt 0.038611 0.082512
vt 0.250000 0.841008
vt 0.250000 0.666667
vt 0.355566 0.828337
vt 0.061636 0.898499
vt 0.049103 0.666667
vt 0.098206 0.666667
vt 0.123272 0.796998
vt 0.112784 0.333333
vt 0.056392 0.333333
vt 0.275253 0.039799
vt 0.300505 0.079599
vt 0.047235 0.514000
vt 0.056392 0.333333
vt 0.112784 0.333333
vt 0.094470 0.517168
vt 0.495447 0.100804
vt 0.495334 0.050424
vt 0.414684 0.514823
vt 0.401844 0.332417
vt 0.094470 0.517168
vt 0.112784 0.333333
vt 0.250000 0.333333
vt 0.250000 0.527601
vt 0.496773 0.191751
vt 0.496768 0.333269
vt 0.094470 0.517168
vt 0.250000 0.527601
vt 0.250000 0.666667
vt 0.098206 0.666667
vt 0.047235 0.514000
vt 0.049103 0.666667
vt 0.000000 0.666667
vt 0.000000 0.510831
vt 0.047144 0.094288
vt 0.000000 0.000000
vt 0.000000 0.000000
vt 0.047144 0.094288
vt 0.123272 0.796998
vt 0.098206 0.666667
vt 0.250000 0.666667
vt 0.400165 0.656373
vt 0.112784 0.333333
vt 0.300505 0.079599
vt 0.405054 0.244373
vt 0.250000 0.333333
vt 0.355566 0.828337
vt 0.427783 0.914169
vt 0.250000 0.920504
vt 0.250000 0.841008
vt 0.398003 0.679152
vt 0.355566 0.828337
vt 0.250000 0.666667
vt 0.394276 0.666667
vt 0.000000 1.000000
vt 0.061636 0.898499
vt 0.250000 0.920504
vt 0.250000 1.000000
vt 0.123272 0.796998
vt 0.250000 0.666667
vt 0.250000 0.841008
vt 0.061636 0.898499
vt 0.123272 0.796998
vt 0.250000 0.841008
vt 0.250000 0.920504
vt 0.427783 0.914169
vt 0.500000 1.000000
vt 0.250000 1.000000
vt 0.250000 0.920504
vt 0.094470 0.517168
vt 0.098206 0.666667
vt 0.049103 0.666667
vt 0.047235 0.514000
vt 0.500000 0.000000
vt 0.250000 0.000000
vt 0.250000 0.000000
vt 0.500000 0.000000
vt 0.000000 0.510831
vt 0.000000 0.333333
vt 0.056392 0.333333
vt 0.047235 0.514000
vt 0.056392 0.333333
vt 0.000000 0.333333
vt 0.250000 0.000000
vt 0.275253 0.039799
vt 0.000000 1.000000
vt 0.000000 0.666667
vt 0.049103 0.666667
vt 0.061636 0.898499
vt 0.037457 0.080044
vt 0.427783 0.914169
vt 0.355566 0.828337
vt 0.398003 0.679152
vt 0.403064 0.651809
vt 0.394276 0.666667
vt 0.250000 0.666667
vt 0.250000 0.529515
vt 0.412344 0.560395
vt 0.300505 0.079599
vt 0.275777 0.040626
vt 0.500000 0.051805
vt 0.500000 0.101299
vt 0.395509 0.670796
vt 0.362715 0.595789
vt 0.352149 0.581119
vt 0.398003 0.679152
vt 0.217396 0.358749
vt 0.000000 0.000000
vt 0.037457 0.080044
vt 0.282524 0.487265
vt 0.375596 0.622191
vt 0.385410 0.645331
vt 0.391365 0.635568
vt 0.367694 0.602701
vt 0.366579 0.612074
vt 0.037457 0.080044
vt 0.047144 0.094288
vt 0.500000 1.000000
vt 0.427783 0.914169
vt 0.500000 1.000000
vt 0.000000 0.666667
vt 0.000000 1.000000
vt 0.000000 1.000000
vt 0.000000 0.666667
vt 0.000000 1.000000
vt 0.250000 1.000000
vt 0.000000 0.333333
vt 0.000000 0.510831
vt 0.000000 0.510831
vt 0.000000 0.333333
vt 0.000000 0.333333
vt 0.014325 0.030612
vt 0.402444 0.332672
vt 0.000000 0.510831
vt 0.000000 0.666667
vt 0.000000 1.000000
vt 0.250000 1.000000
vt 0.250000 1.000000
vt 0.000000 1.000000
vt 0.000000 0.510831
vt 0.000000 0.666667
vt 0.000000 0.666667
vt 0.000000 0.510831
vt 0.250000 0.000000
vt 0.000000 0.333333
vt 0.000000 0.333333
vt 0.250000 0.000000
vt 0.500000 1.000000
vt 0.047144 0.094288
vt 0.047144 0.094288
vt 0.500000 1.000000
vt 0.250000 1.000000
vt 0.500000 1.000000
vt 0.500000 1.000000
vt 0.250000 1.000000
vt 0.500000 0.189899
vt 0.500000 0.102982
vt 0.000000 0.000000
vt 0.500000 0.333333
vt 0.500000 0.191815
vt 0.416988 0.514645
vt 0.404317 0.333333
vt 0.500000 0.101299
vt 0.500000 0.051882
vt 0.500000 0.050649
vt 0.500000 0.001940
vt 0.403064 0.651809
vt 0.416967 0.514857
vt 0.348536 0.575157
vt 0.352149 0.581119
vt 0.365550 0.599725
vt 0.367694 0.602701
vt 0.389104 0.632428
vt 0.500000 0.000000
vt 0.302891 0.083359
vt 0.500000 0.104310
vt 0.500000 0.189899
vt 0.405054 0.244373
vt 0.250000 0.666667
vt 0.250000 0.841008
vt 0.355566 0.828337
vt 0.049103 0.666667
vt 0.061636 0.898499
vt 0.123272 0.796998
vt 0.098206 0.666667
vt 0.056392 0.333333
vt 0.112784 0.333333
vt 0.300505 0.079599
vt 0.275253 0.039799
vt 0.047235 0.514000
vt 0.094470 0.517168
vt 0.000000 0.000000
vt 0.000000 0.000000
vt 0.047144 0.094288
vt 0.041164 0.085495
vt 0.403892 0.246118
vt 0.404317 0.333333
vt 0.250000 0.333333
vt 0.250000 0.527601
vt 0.250000 0.333333
vt 0.250000 0.000000
vt 0.495475 0.000000
vt 0.495487 0.000000
vt 0.250000 0.000000
vt 0.000000 0.510831
vt 0.000000 0.666667
vt 0.020336 0.040672
vt 0.049146 0.098293
vt 0.049146 0.098293
vt 0.020266 0.040533
vt 0.408281 0.247397
vt 0.501962 0.193656
vt 0.500000 0.333333
vt 0.250000 0.527601
vt 0.249219 0.336395
vt 0.404492 0.335829
vt 0.416988 0.514645
vt 0.405054 0.244373
vt 0.427783 0.914169
vt 0.250000 0.920504
vt 0.397944 0.679360
vt 0.393629 0.666667
vt 0.000000 1.000000
vt 0.250000 1.000000
vt 0.500000 1.000000
vt 0.275253 0.039799
vt 0.250457 0.000720
vt 0.500000 0.001052
vt 0.500000 0.050649
vt 0.000000 0.333333
vt 0.038611 0.082512
vt 0.250000 0.841008
vt 0.250000 0.666667
vt 0.355566 0.828337
vt 0.061636 0.898499
vt 0.049103 0.666667
vt 0.098206 0.666667
vt 0.123272 0.796998
vt 0.112784 0.333333
vt 0.056392 0.333333
vt 0.275253 0.039799
vt 0.300505 0.079599
vt 0.047235 0.514000
vt 0.056392 0.333333
vt 0.112784 0.333333
vt 0.094470 0.517168
vt 0.495447 0.100804
vt 0.495334 0.050424
vt 0.414684 0.514823
vt 0.401844 0.332417
vt 0.094470 0.517168
vt 0.112784 0.333333
vt 0.250000 0.333333
vt 0.250000 0.527601
vt 0.496773 0.191751
vt 0.496768 0.333269
vt 0.094470 0.517168
vt 0.250000 0.527601
vt 0.250000 0.666667
vt 0.098206 0.666667
vt 0.047235 0.514000
vt 0.049103 0.666667
vt 0.000000 0.666667
vt 0.000000 0.510831
vt 0.047144 0.094288
vt 0.000000 0.000000
vt 0.000000 0.000000
vt 0.047144 0.094288
vt 0.123272 0.796998
vt 0.098206 0.666667
vt 0.250000 0.666667
vt 0.400165 0.656373
vt 0.112784 0.333333
vt 0.300505 0.079599
vt 0.405054 0.244373
vt 0.250000 0.333333
vt 0.355566 0.828337
vt 0.427783 0.914169
vt 0.250000 0.920504
vt 0.250000 0.841008
vt 0.398003 0.679152
vt 0.355566 0.828337
vt 0.250000 0.666667
vt 0.394276 0.666667
vt 0.000000 1.000000
vt 0.061636 0.898499
vt 0.250000 0.920504
vt 0.250000 1.000000
vt 0.123272 0.796998
vt 0.250000 0.666667
vt 0.250000 0.841008
vt 0.061636 0.898499
vt 0.123272 0.796998
vt 0.250000 0.841008
vt 0.250000 0.920504
vt 0.427783 0.914169
vt 0.500000 1.000000
vt 0.250000 1.000000
vt 0.250000 0.920504
vt 0.094470 0.517168
vt 0.098206 0.666667
vt 0.049103 0.666667
vt 0.047235 0.514000
vt 0.500000 0.000000
vt 0.250000 0.000000
vt 0.250000 0.000000
vt 0.500000 0.000000
vt 0.000000 0.510831
vt 0.000000 0.333333
vt 0.056392 0.333333
vt 0.047235 0.514000
vt 0.056392 0.333333
vt 0.000000 0.333333
vt 0.250000 0.000000
vt 0.275253 0.039799
vt 0.000000 1.000000
vt 0.000000 0.666667
vt 0.049103 0.666667
vt 0.061636 0.898499
vt 0.037457 0.080044
vt 0.427783 0.914169
vt 0.355566 0.828337
vt 0.398003 0.679152
vt 0.403064 0.651809
vt 0.394276 0.666667
vt 0.250000 0.666667
vt 0.250000 0.529515
vt 0.412344 0.560395
vt 0.300505 0.079599
vt 0.275777 0.040626
vt 0.500000 0.051805
vt 0.500000 0.101299
vt 0.395509 0.670796
vt 0.362715 0.595789
vt 0.352149 0.581119
vt 0.398003 0.679152
vt 0.217396 0.358749
vt 0.000000 0.000000
vt 0.037457 0.080044
vt 0.282524 0.487265
vt 0.375596 0.622191
vt 0.385410 0.645331
vt 0.391365 0.635568
vt 0.367694 0.602701
vt 0.366579 0.612074
vt 0.037457 0.080044
vt 0.047144 0.094288
vt 0.500000 1.000000
vt 0.427783 0.914169
vt 0.500000 1.000000
vt 0.000000 0.666667
vt 0.000000 1.000000
vt 0.000000 1.000000
vt 0.000000 0.666667
vt 0.000000 1.000000
vt 0.250000 1.000000
vt 0.000000 0.333333
vt 0.000000 0.510831
vt 0.000000 0.510831
vt 0.000000 0.333333
vt 0.000000 0.333333
vt 0.014325 0.030612
vt 0.402444 0.332672
vt 0.000000 0.510831
vt 0.000000 0.666667
vt 0.000000 1.000000
vt 0.250000 1.000000
vt 0.250000 1.000000
vt 0.000000 1.000000
vt 0.000000 0.510831
vt 0.000000 0.666667
vt 0.000000 0.666667
vt 0.000000 0.510831
vt 0.250000 0.000000
vt 0.000000 0.333333
vt 0.000000 0.333333
vt 0.250000 0.000000
vt 0.500000 1.000000
vt 0.047144 0.094288
vt 0.047144 0.094288
vt 0.500000 1.000000
vt 0.250000 1.000000
vt 0.500000 1.000000
vt 0.500000 1.000000
vt 0.250000 1.000000
vt 0.500000 0.189899
vt 0.500000 0.102982
vt 0.000000 0.000000
vt 0.500000 0.333333
vt 0.500000 0.191815
vt 0.416988 0.514645
vt 0.404317 0.333333
vt 0.500000 0.101299
vt 0.500000 0.051882
vt 0.500000 0.050649
vt 0.500000 0.001940
vt 0.403064 0.651809
vt 0.416967 0.514857
vt 0.348536 0.575157
vt 0.352149 0.581119
vt 0.365550 0.599725
vt 0.367694 0.602701
vt 0.389104 0.632428
vt 0.500000 0.000000
vt 0.302891 0.083359
vt 0.500000 0.104310
vt 0.500000 0.189899
vt 0.405054 0.244373
vn -0.0000 -0.0000 1.0000
vn 0.2611 0.3122 0.9134
vn 0.3443 -0.3682 0.8637
vn 0.4063 -0.1106 0.9070
vn 0.5098 0.7529 0.4162
vn 0.4979 -0.8672 0.0000
vn 0.5629 0.1596 0.8110
vn -0.5500 0.8352 0.0000
vn -0.1703 0.4183 0.8922
vn 0.0468 0.7009 0.7117
vn 0.0466 0.4128 0.9096
vn -0.3255 0.7251 0.6068
vn 0.3840 0.1318 0.9139
vn -0.4237 -0.7544 0.5013
vn 0.5873 -0.1211 0.8003
vn 0.5359 -0.5932 0.6007
vn 0.3886 0.5149 0.7641
vn -0.2608 0.4285 0.8651
vn -0.2611 0.3122 0.9134
vn -0.3443 -0.3682 0.8637
vn -0.4063 -0.1106 0.9070
vn 0.1852 -0.3824 0.9052
vn -0.5629 0.1596 0.8110
vn 0.5500 0.8352 -0.0000
vn 0.1703 0.4183 0.8922
vn -0.0468 0.7009 0.7117
vn -0.0466 0.4128 0.9096
vn 0.3255 0.7251 0.6068
vn -0.3840 0.1318 0.9139
vn -0.4979 -0.8672 0.0000
vn -0.5873 -0.1211 0.8003
vn -0.5359 -0.5932 0.6007
vn -0.3886 0.5149 0.7641
vn 0.2609 0.4286 0.8650
vn -0.1852 -0.3824 0.9052
vn 0.2560 0.0538 0.9652
vn 0.3599 0.4654 0.8086
vn -0.2197 0.1855 0.9578
vn 0.2382 0.1847 0.9535
vn -0.2384 0.0334 0.9706
vn 0.5114 0.6809 0.5242
vn -0.5116 0.6809 0.5241
vn -0.6357 0.7719 0.0000
vn 0.4237 -0.7544 0.5013
vn -0.5893 0.8079 0.0000
vn 0.0466 0.9989 0.0000
vn -0.9854 -0.1703 0.0000
vn 0.6648 -0.7470 0.0000
vn -0.3585 0.4656 0.8091
vn -0.4207 0.9072 0.0000
vn 0.9686 0.2485 0.0000
vn -0.5097 0.7530 0.4161
vn -0.0466 0.9989 0.0000
vn -0.9686 0.2485 0.0000
vn 0.5893 0.8079 0.0000
vn -0.6648 -0.7470 0.0000
vn 0.6354 0.7722 0.0000
vn 0.9854 -0.1703 0.0000
vn 0.4207 0.9072 0.0000
vn 0.0002 0.8739 0.4862
vn 0.0000 -0.3379 0.9412
vn 0.0000 -0.7963 0.6049
vn 0.0006 0.4944 0.8692
vn 0.0057 0.1239 0.9923
vn 0.0097 0.1910 0.9815
vn 0.0000 -1.0000 0.0001
vn 0.0002 1.0000 -0.0001
vn 0.2560 0.0539 0.9652
vn 0.3599 0.4655 0.8086
usemtl Material
s off
f 7/1/1 16/2/1 17/3/1
f 19/4/2 25/5/2 18/6/2 12/7/2
f 22/8/3 15/9/3 14/10/3 20/11/3
f 22/8/4 21/12/4 13/13/4 15/9/4
f 88/14/5 57/15/5 56/16/5 89/17/5
f 80/18/1 33/19/1 34/20/1
f 15/9/1 13/13/1 10/21/1 8/22/1
f 3/23/6 78/24/6 97/25/6 61/26/6
f 10/21/1 13/13/1 12/7/1 7/1/1
f 19/4/7 21/12/7 11/27/7 5/28/7
f 87/29/8 58/30/8 74/31/8 100/32/8
f 76/33/1 80/34/1 34/35/1
f 12/7/1 18/6/1 7/1/1
f 33/36/1 80/37/1 82/38/1 35/39/1
f 14/10/1 15/9/1 8/22/1 9/40/1
f 24/41/9 17/3/9 16/2/9 23/42/9
f 17/3/1 54/43/1 51/44/1 7/1/1
f 25/5/10 1/45/10 4/46/10 23/42/10
f 7/1/1 18/6/1 16/2/1
f 18/6/11 25/5/11 23/42/11 16/2/11
f 2/47/12 24/41/12 23/42/12 4/46/12
f 12/7/13 13/13/13 21/12/13 19/4/13
f 28/48/14 77/49/14 85/50/14 45/51/14
f 6/52/15 11/27/15 21/12/15 22/8/15
f 6/52/16 22/8/16 20/11/16 3/23/16
f 5/28/17 1/45/17 25/5/17 19/4/17
f 24/41/18 55/53/18 54/43/18 17/3/18
f 32/54/1 42/55/1 41/56/1
f 44/57/19 37/58/19 43/59/19 50/60/19
f 47/61/20 45/62/20 39/63/20 40/64/20
f 47/65/21 40/66/21 38/67/21 46/68/21
f 20/11/22 14/10/22 84/69/22 86/70/22
f 8/22/1 10/21/1 81/71/1 79/72/1
f 40/73/1 33/74/1 35/75/1 38/76/1
f 75/77/1 9/40/1 79/78/1
f 35/79/1 32/80/1 37/81/1 38/82/1
f 44/83/23 30/84/23 36/85/23 46/86/23
f 88/87/24 99/88/24 73/89/24 57/90/24
f 84/69/1 14/10/1 9/40/1 75/77/1
f 37/91/1 32/92/1 43/93/1
f 51/44/1 91/94/1 81/71/1 10/21/1 7/1/1
f 39/95/1 34/96/1 33/97/1 40/98/1
f 49/99/25 48/100/25 41/101/25 42/102/25
f 42/103/1 32/104/1 52/105/1 53/106/1
f 50/107/26 48/108/26 29/109/26 26/110/26
f 32/111/1 41/112/1 43/113/1
f 43/114/27 41/115/27 48/116/27 50/117/27
f 27/118/28 29/119/28 48/120/28 49/121/28
f 37/122/29 44/123/29 46/124/29 38/125/29
f 28/126/30 68/127/30 98/128/30 77/129/30
f 31/130/31 47/131/31 46/132/31 36/133/31
f 31/134/32 28/135/32 45/136/32 47/137/32
f 30/138/33 44/139/33 50/140/33 26/141/33
f 49/142/34 42/143/34 53/144/34 56/145/34
f 52/146/1 32/147/1 35/148/1 82/149/1 92/150/1
f 45/151/35 85/152/35 83/153/35 39/154/35
f 95/155/36 93/156/36 53/157/36 52/158/36
f 89/159/37 56/160/37 53/161/37 93/162/37
f 96/163/38 91/94/38 51/44/38
f 92/164/39 95/165/39 52/166/39
f 51/44/40 54/43/40 94/167/40 96/163/40
f 57/168/41 27/169/41 49/170/41 56/171/41
f 58/30/42 55/53/42 24/41/42 2/47/42
f 58/30/43 2/47/43 60/172/43 74/31/43
f 3/23/44 20/11/44 86/70/44 78/24/44
f 26/173/45 66/174/45 70/175/45 30/176/45
f 4/46/46 1/45/46 59/177/46 62/178/46
f 36/179/47 72/180/47 71/181/47 31/182/47
f 6/52/48 3/23/48 61/26/48 64/183/48
f 55/53/49 90/184/49 94/167/49 54/43/49
f 79/185/1 9/40/1 8/22/1
f 2/47/50 4/46/50 62/178/50 60/172/50
f 5/28/51 11/27/51 65/186/51 63/187/51
f 87/29/52 90/184/52 55/53/52 58/30/52
f 29/188/53 69/189/53 66/190/53 26/191/53
f 30/192/54 70/193/54 72/194/54 36/195/54
f 1/45/55 5/28/55 63/187/55 59/177/55
f 31/196/56 71/197/56 68/198/56 28/199/56
f 57/200/57 73/201/57 67/202/57 27/203/57
f 11/27/58 6/52/58 64/183/58 65/186/58
f 27/204/59 67/205/59 69/206/59 29/207/59
f 84/69/1 75/77/1 76/208/1 83/209/1
f 88/14/60 89/210/60 90/184/60 87/29/60
f 75/77/1 79/78/1 80/211/1 76/212/1
f 79/72/1 81/71/1 82/213/1 80/214/1
f 86/70/61 84/69/61 83/215/61 85/216/61
f 78/24/62 86/70/62 85/217/62 77/218/62
f 81/71/1 91/94/1 92/219/1 82/220/1
f 89/210/63 93/221/63 94/167/63 90/184/63
f 96/163/64 94/167/64 93/222/64 95/223/64
f 91/94/65 96/163/65 95/224/65 92/225/65
f 77/129/66 98/226/66 97/25/66 78/24/66
f 99/88/67 88/14/67 87/29/67 100/32/67
f 83/227/1 76/228/1 34/229/1 39/230/1
f 107/231/1 116/232/1 117/233/1
f 119/234/2 125/235/2 118/236/2 112/237/2
f 122/238/3 115/239/3 114/240/3 120/241/3
f 122/238/4 121/242/4 113/243/4 115/239/4
f 188/244/5 157/245/5 156/246/5 189/247/5
f 180/248/1 133/249/1 134/250/1
f 115/239/1 113/243/1 110/251/1 108/252/1
f 103/253/6 178/254/6 197/255/6 161/256/6
f 110/251/1 113/243/1 112/237/1 107/231/1
f 119/234/7 121/242/7 111/257/7 105/258/7
f 187/259/8 158/260/8 174/261/8 200/262/8
f 176/263/1 180/264/1 134/265/1
f 112/237/1 118/236/1 107/231/1
f 133/266/1 180/267/1 182/268/1 135/269/1
f 114/240/1 115/239/1 108/252/1 109/270/1
f 124/271/9 117/233/9 116/232/9 123/272/9
f 117/233/1 154/273/1 151/274/1 107/231/1
f 125/235/10 101/275/10 104/276/10 123/272/10
f 107/231/1 118/236/1 116/232/1
f 118/236/11 125/235/11 123/272/11 116/232/11
f 102/277/12 124/271/12 123/272/12 104/276/12
f 112/237/13 113/243/13 121/242/13 119/234/13
f 128/278/14 177/279/14 185/280/14 145/281/14
f 106/282/15 111/257/15 121/242/15 122/238/15
f 106/282/16 122/238/16 120/241/16 103/253/16
f 105/258/17 101/275/17 125/235/17 119/234/17
f 124/271/18 155/283/18 154/273/18 117/233/18
f 132/284/1 142/285/1 141/286/1
f 144/287/19 137/288/19 143/289/19 150/290/19
f 147/291/20 145/292/20 139/293/20 140/294/20
f 147/295/21 140/296/21 138/297/21 146/298/21
f 120/241/22 114/240/22 184/299/22 186/300/22
f 108/252/1 110/251/1 181/301/1 179/302/1
f 140/303/1 133/304/1 135/305/1 138/306/1
f 175/307/1 109/270/1 179/308/1
f 135/309/1 132/310/1 137/311/1 138/312/1
f 144/313/23 130/314/23 136/315/23 146/316/23
f 188/317/24 199/318/24 173/319/24 157/320/24
f 184/299/1 114/240/1 109/270/1 175/307/1
f 137/321/1 132/322/1 143/323/1
f 151/274/1 191/324/1 181/301/1 110/251/1 107/231/1
f 139/325/1 134/326/1 133/327/1 140/328/1
f 149/329/25 148/330/25 141/331/25 142/332/25
f 142/333/1 132/334/1 152/335/1 153/336/1
f 150/337/26 148/338/26 129/339/26 126/340/26
f 132/341/1 141/342/1 143/343/1
f 143/344/27 141/345/27 148/346/27 150/347/27
f 127/348/28 129/349/28 148/350/28 149/351/28
f 137/352/29 144/353/29 146/354/29 138/355/29
f 128/356/30 168/357/30 198/358/30 177/359/30
f 131/360/31 147/361/31 146/362/31 136/363/31
f 131/364/32 128/365/32 145/366/32 147/367/32
f 130/368/33 144/369/33 150/370/33 126/371/33
f 149/372/34 142/373/34 153/374/34 156/375/34
f 152/376/1 132/377/1 135/378/1 182/379/1 192/380/1
f 145/381/35 185/382/35 183/383/35 139/384/35
f 195/385/68 193/386/68 153/387/68 152/388/68
f 189/389/69 156/390/69 153/391/69 193/392/69
f 196/393/38 191/324/38 151/274/38
f 192/394/39 195/395/39 152/396/39
f 151/274/40 154/273/40 194/397/40 196/393/40
f 157/398/41 127/399/41 149/400/41 156/401/41
f 158/260/42 155/283/42 124/271/42 102/277/42
f 158/260/43 102/277/43 160/402/43 174/261/43
f 103/253/44 120/241/44 186/300/44 178/254/44
f 126/403/45 166/404/45 170/405/45 130/406/45
f 104/276/46 101/275/46 159/407/46 162/408/46
f 136/409/47 172/410/47 171/411/47 131/412/47
f 106/282/48 103/253/48 161/256/48 164/413/48
f 155/283/49 190/414/49 194/397/49 154/273/49
f 179/415/1 109/270/1 108/252/1
f 102/277/50 104/276/50 162/408/50 160/402/50
f 105/258/51 111/257/51 165/416/51 163/417/51
f 187/259/52 190/414/52 155/283/52 158/260/52
f 129/418/53 169/419/53 166/420/53 126/421/53
f 130/422/54 170/423/54 172/424/54 136/425/54
f 101/275/55 105/258/55 163/417/55 159/407/55
f 131/426/56 171/427/56 168/428/56 128/429/56
f 157/430/57 173/431/57 167/432/57 127/433/57
f 111/257/58 106/282/58 164/413/58 165/416/58
f 127/434/59 167/435/59 169/436/59 129/437/59
f 184/299/1 175/307/1 176/438/1 183/439/1
f 188/244/60 189/440/60 190/414/60 187/259/60
f 175/307/1 179/308/1 180/441/1 176/442/1
f 179/302/1 181/301/1 182/443/1 180/444/1
f 186/300/61 184/299/61 183/445/61 185/446/61
f 178/254/62 186/300/62 185/447/62 177/448/62
f 181/301/1 191/324/1 192/449/1 182/450/1
f 189/440/63 193/451/63 194/397/63 190/414/63
f 196/393/64 194/397/64 193/452/64 195/453/64
f 191/324/65 196/393/65 195/454/65 192/455/65
f 177/359/66 198/456/66 197/255/66 178/254/66
f 199/318/67 188/244/67 187/259/67 200/262/67
f 183/457/1 176/458/1 134/459/1 139/460/1
