# Blender v2.91.0 OBJ File: 'head.blend'
# www.blender.org
mtllib head.mtl
o Cube
v 0.600752 1.000000 -0.914061
v 0.600752 -0.209673 -0.928911
v 0.600752 1.000000 0.806884
v -0.600752 1.000000 -0.914061
v -0.600752 -0.209673 -0.928911
v -0.600752 1.000000 0.806884
v 0.939424 1.193038 0.000000
v -0.939424 1.193038 0.000000
v 0.600752 -0.002957 -1.000000
v -0.600752 -0.230937 1.158153
v 0.600752 -0.230937 1.158153
v -0.600752 -0.002957 -1.000000
v 0.939424 -0.149592 0.000000
v -0.939424 -0.149592 0.000000
v 0.770497 1.169745 0.498793
v -0.770497 1.169745 0.498793
v -0.770497 -0.117174 0.498793
v 0.770497 -0.117174 0.498793
v 0.278127 -0.209673 -1.044637
v -0.278127 -0.209673 -1.044637
v 0.278127 1.128246 1.114943
v -0.278127 1.128246 1.114943
v -0.278127 1.112686 -1.029786
v 0.278127 1.112686 -1.029786
v 0.507534 -0.489741 0.019282
v -0.507534 -0.489741 0.019282
v -0.507534 1.402030 0.000000
v 0.507534 1.402030 0.000000
v -0.278127 -0.002957 -1.115725
v 0.278127 -0.002957 -1.115725
v 0.278127 -0.230937 1.225417
v -0.278127 -0.230937 1.225417
v 0.393107 -1.400008 0.498793
v -0.393107 -1.400008 0.498793
v -0.393107 1.378737 0.498793
v 0.393107 1.378737 0.498793
v -0.278127 -0.652601 1.288746
v 0.278127 -0.652601 1.288746
v -0.600752 0.682520 1.000000
v 0.600752 0.741320 -1.000000
v 0.600752 0.682520 1.000000
v -0.600752 0.741320 -1.000000
v 0.939424 0.846751 0.000000
v -0.939424 0.846751 0.000000
v -0.770497 0.837826 0.498793
v 0.770497 0.837826 0.498793
v -0.278127 0.824943 -1.115725
v 0.278127 0.824943 -1.115725
v 0.278127 0.777689 1.308059
v -0.278127 0.777689 1.308059
v -0.881717 1.164612 -0.500307
v 0.881717 -0.499444 -0.489746
v -0.881717 -0.499444 -0.489745
v 0.881717 1.164612 -0.500307
v 0.881717 -0.120141 -0.500307
v -0.881717 -0.120141 -0.500307
v 0.468445 1.340805 -0.500307
v -0.468445 1.340805 -0.500307
v -0.468445 -0.419676 -0.489745
v 0.468445 -0.419676 -0.489745
v 0.881717 0.833252 -0.500307
v -0.881717 0.833252 -0.500307
v -0.600752 -1.113476 0.990954
v 0.278127 -1.158122 1.298349
v 0.600752 -1.113476 0.990516
v -0.278127 -1.158122 1.298090
v -0.466952 -0.882582 1.075665
v 0.241386 -0.931708 1.338185
v 0.466937 -0.882547 1.075478
v -0.241386 -0.931688 1.338074
v 0.564218 -0.844760 0.873554
v -0.564047 -0.844922 0.874424
v -0.450321 -0.944874 0.259037
v 0.450321 -0.944874 0.259037
v 0.513709 -1.460020 1.001118
v 0.600752 -1.374968 0.997786
v -0.513709 -1.460020 1.001118
v -0.600752 -1.375001 0.997889
v -0.858592 -0.608118 0.019282
v -0.904334 -0.633630 0.118895
v -0.939424 -0.551391 0.015948
v -0.930273 -0.613819 -0.061440
v 0.904362 -0.633631 0.118815
v 0.858592 -0.608118 0.019282
v 0.930273 -0.613819 -0.061440
v 0.939424 -0.551391 0.015948
v -0.747809 -1.327542 0.553862
v -0.683929 -1.400008 0.498793
v 0.683929 -1.400008 0.498793
v 0.747836 -1.327492 0.553730
v -0.292671 -1.491873 1.242206
v -0.278127 -1.424882 1.337884
v 0.278127 -1.424868 1.337942
v 0.292671 -1.491873 1.242206
v 0.822385 -0.973201 0.329162
v 0.771277 -1.002632 0.259037
v -0.822443 -0.972838 0.329022
v -0.771277 -1.002632 0.259037
v 0.791491 -0.628020 0.439226
v 0.767983 -0.576544 0.505958
v -0.791388 -0.628015 0.439519
v -0.767988 -0.576543 0.505944
v -0.576831 -0.951218 0.820172
v 0.576904 -0.950558 0.819649
v 0.618096 -0.824254 0.644440
v -0.619040 -0.823858 0.641857
v 0.534882 -0.694104 0.976678
v -0.534876 -0.694105 0.976797
v 0.709086 -0.652899 0.554775
v -0.709235 -0.652877 0.554365
v 0.259756 -0.792155 1.313465
v -0.259756 -0.792144 1.313410
v 0.259756 -1.044915 1.318267
v 0.533845 -0.998011 1.032997
v -0.259756 -1.044905 1.318082
v -0.533852 -0.998029 1.033310
v -0.598819 -1.430014 0.749955
v -0.674281 -1.351271 0.775876
v 0.598819 -1.430014 0.749955
v 0.674294 -1.351230 0.775758
v 0.342889 -1.445941 0.870500
v -0.342889 -1.445941 0.870500
v 0.627880 -1.087558 0.889518
v -0.627827 -1.087689 0.890042
v 0.515578 -0.863653 0.974516
v 0.555375 -0.974285 0.926323
v -0.515499 -0.863752 0.975045
v -0.555341 -0.974624 0.926741
v -0.627731 -0.672149 0.744367
v 0.633885 -0.670686 0.744367
v -0.478815 -0.781183 1.055658
v 0.479583 -0.778993 1.054350
v 0.685624 1.084872 0.652839
v 0.685624 -0.174056 0.828473
v 0.268942 -0.722378 1.301106
v -0.268942 -0.722373 1.301078
v -0.685624 1.084872 0.652839
v -0.685624 -0.174056 0.828473
v 0.335617 1.253491 0.806868
v -0.335617 1.253491 0.806868
v -0.685624 0.760173 0.749397
v 0.685624 0.760173 0.749397
v -0.648763 -1.053197 0.791572
v -0.657625 -1.069687 0.782236
v -0.652209 -1.064467 0.799168
v 0.657729 -1.069430 0.781639
v 0.648875 -1.052916 0.790964
v 0.652313 -1.064214 0.798554
v 0.720605 -0.844891 0.538025
v 0.733985 -0.852465 0.519464
v 0.732499 -0.837152 0.524572
v -0.735049 -0.852290 0.517113
v -0.721647 -0.844653 0.535656
v -0.733536 -0.836885 0.522293
v 0.580226 -0.635793 1.164877
v 0.584989 -0.619495 1.180517
v 0.574761 -0.630943 1.184705
v -0.584989 -0.619495 1.180517
v -0.580225 -0.635794 1.164884
v -0.574761 -0.630943 1.184705
v -0.671178 -0.610600 0.821587
v -0.676505 -0.592640 0.830583
v -0.679172 -0.602537 0.820368
v 0.676502 -0.592640 0.830590
v 0.671594 -0.610808 0.821129
v 0.679169 -0.602537 0.820375
v -0.613485 -0.847705 0.979382
v -0.621307 -0.844591 0.968821
v -0.705777 -0.722465 0.673848
v -0.706354 -0.719711 0.671331
v -0.696413 -0.727627 0.678621
v -0.614494 -0.844495 0.965673
v 0.613537 -0.847579 0.979075
v 0.614551 -0.844354 0.965366
v 0.621359 -0.844462 0.968523
v 0.696099 -0.727850 0.679577
v 0.705834 -0.719844 0.672474
v 0.705243 -0.722552 0.675027
vt 0.791667 0.718674
vt 0.875000 0.718675
vt 0.875000 0.750000
vt 0.791667 0.750000
vt 0.592665 0.916667
vt 0.625000 0.916667
vt 0.625000 1.000000
vt 0.592665 1.000000
vt 0.592665 0.187500
vt 0.625000 0.187500
vt 0.625000 0.250000
vt 0.592665 0.250000
vt 0.148282 0.714004
vt 0.208333 0.714712
vt 0.208333 0.742075
vt 0.152449 0.740659
vt 0.592665 0.718675
vt 0.625000 0.718674
vt 0.625000 0.750000
vt 0.592665 0.750000
vt 0.592665 0.416667
vt 0.625000 0.416667
vt 0.625000 0.500000
vt 0.592665 0.500000
vt 0.592665 0.562500
vt 0.625000 0.562500
vt 0.625000 0.625000
vt 0.592665 0.625000
vt 0.375000 0.562500
vt 0.499630 0.562500
vt 0.499630 0.625000
vt 0.396546 0.625000
vt 0.375000 0.615089
vt 0.592665 0.062651
vt 0.625000 0.062651
vt 0.625000 0.125000
vt 0.592665 0.125000
vt 0.791667 0.562500
vt 0.875000 0.562500
vt 0.875000 0.625000
vt 0.791667 0.625000
vt 0.208333 0.625000
vt 0.291667 0.625000
vt 0.291667 0.656175
vt 0.208333 0.656174
vt 0.359403 0.625000
vt 0.357766 0.656175
vt 0.375000 0.416667
vt 0.499630 0.416667
vt 0.499630 0.500000
vt 0.375000 0.500000
vt 0.396546 0.125000
vt 0.390790 0.112049
vt 0.441613 0.070362
vt 0.456428 0.062651
vt 0.499630 0.062651
vt 0.499630 0.125000
vt 0.375000 0.187500
vt 0.499630 0.187500
vt 0.499630 0.250000
vt 0.375000 0.250000
vt 0.417086 0.742453
vt 0.412255 0.750000
vt 0.383698 0.750000
vt 0.384247 0.722857
vt 0.434399 0.010725
vt 0.435707 0.033389
vt 0.429865 0.014237
vt 0.375000 0.134911
vt 0.592665 0.031325
vt 0.625000 0.031325
vt 0.625000 0.687349
vt 0.592665 0.687349
vt 0.291667 0.714712
vt 0.291667 0.742075
vt 0.875000 0.687349
vt 0.791667 0.687349
vt 0.445108 0.002429
vt 0.431587 0.005362
vt 0.431628 0.000424
vt 0.291667 0.562500
vt 0.431561 0.750000
vt 0.434214 0.744599
vt 0.434537 0.750000
vt 0.125000 0.562500
vt 0.208333 0.562500
vt 0.140597 0.625000
vt 0.125000 0.615089
vt 0.456476 0.689205
vt 0.452151 0.691153
vt 0.452151 0.680992
vt 0.431347 0.833333
vt 0.440670 0.833333
vt 0.449118 0.916667
vt 0.449992 0.833333
vt 0.499630 0.833333
vt 0.499630 0.916667
vt 0.708333 0.625000
vt 0.708333 0.687349
vt 0.291667 0.687349
vt 0.208333 0.687349
vt 0.351718 0.714004
vt 0.347551 0.740659
vt 0.499630 0.333333
vt 0.375000 0.333333
vt 0.708333 0.562500
vt 0.142234 0.656175
vt 0.625000 0.333333
vt 0.592665 0.333333
vt 0.383852 0.916667
vt 0.413259 0.916667
vt 0.409306 1.000000
vt 0.383006 1.000000
vt 0.383724 0.833333
vt 0.412702 0.833333
vt 0.625000 0.833333
vt 0.592665 0.833333
vt 0.708333 0.718675
vt 0.708333 0.750000
vt 0.499630 0.750000
vt 0.499630 0.687349
vt 0.499630 0.031325
vt 0.499630 0.718675
vt 0.499630 1.000000
vt 0.208333 0.500000
vt 0.291667 0.500000
vt 0.125000 0.500000
vt 0.708333 0.500000
vt 0.791667 0.500000
vt 0.355885 0.687349
vt 0.875000 0.500000
vt 0.422025 0.833333
vt 0.421908 0.750000
vt 0.444636 0.916667
vt 0.445331 0.833333
vt 0.455584 0.030423
vt 0.454932 0.000000
vt 0.499630 0.000000
vt 0.437552 0.716994
vt 0.448279 0.721135
vt 0.447693 0.747552
vt 0.436868 0.739198
vt 0.449166 0.754184
vt 0.450638 0.758003
vt 0.450753 0.760764
vt 0.420830 0.733757
vt 0.421438 0.735656
vt 0.384796 0.695713
vt 0.391057 0.637941
vt 0.457626 0.687349
vt 0.442748 0.679600
vt 0.448724 0.701070
vt 0.393208 0.126985
vt 0.394663 0.121665
vt 0.447630 0.059325
vt 0.419040 1.000000
vt 0.422224 0.916667
vt 0.431188 0.916667
vt 0.428775 1.000000
vt 0.000000 0.000000
vt 0.000000 0.000000
vt 0.000000 0.000000
vt 0.000000 0.000000
vt 0.455209 0.060799
vt 0.454477 0.031361
vt 0.383660 0.027139
vt 0.413140 0.012458
vt 0.416593 0.023677
vt 0.416017 0.025777
vt 0.384315 0.054277
vt 0.432350 0.735713
vt 0.427129 0.742856
vt 0.422737 0.734969
vt 0.440153 0.916667
vt 0.431592 1.000000
vt 0.144115 0.687349
vt 0.125000 0.628872
vt 0.129906 0.625000
vt 0.127845 0.625000
vt 0.382244 0.628518
vt 0.125000 0.748803
vt 0.125000 0.721120
vt 0.375000 0.750000
vt 0.294661 0.750000
vt 0.388979 0.668198
vt 0.125000 0.685488
vt 0.125000 0.656526
vt 0.375000 0.125000
vt 0.125000 0.656175
vt 0.194696 0.518191
vt 0.205332 0.750000
vt 0.125000 0.750000
vt 0.291667 0.750000
vt 0.208333 0.750000
vt 0.427833 0.732227
vt 0.429328 0.701374
vt 0.426914 0.700825
vt 0.382013 0.147341
vt 0.418141 0.724184
vt 0.469665 0.021031
vt 0.455635 0.719359
vt 0.455314 0.749787
vt 0.446618 0.995816
vt 0.448357 0.989236
vt 0.448182 0.991997
vt 0.456544 0.718192
vt 0.453585 0.030068
vt 0.446178 0.027245
vt 0.449402 0.001215
vt 0.453323 0.000106
vt 0.457213 0.750000
vt 0.457625 0.719127
vt 0.383006 0.000000
vt 0.409306 0.000000
vt 0.125000 0.693436
vt 0.424453 0.007119
vt 0.429440 0.703575
vt 0.428775 0.000000
vt 0.419040 0.000000
vt 0.419830 0.725607
vt 0.417632 0.024353
vt 0.425331 0.017750
vt 0.447117 0.049027
vt 0.455848 0.752663
vt 0.447554 0.750000
vt 0.592665 0.000000
vt 0.625000 0.000000
vt 0.449711 0.991857
vt 0.456580 0.718133
vt 0.438643 0.744159
vt 0.439021 0.741879
vt 0.436096 0.748210
vt 0.435234 0.741805
vt 0.437572 0.737697
vt 0.442537 0.711467
vt 0.432475 0.506457
vt 0.432864 0.508817
vt 0.432907 0.508175
vt 0.435475 0.012889
vt 0.418798 0.088882
vt 0.424124 0.075867
vt 0.423843 0.079173
vt 0.435477 0.012229
vt 0.417988 0.024077
vt 0.442936 0.709783
vt 0.437677 0.737092
vt 0.442270 0.709976
vn -0.6077 0.6356 0.4762
vn -0.7071 0.3539 0.6122
vn -0.8391 0.0784 -0.5382
vn -0.0092 -0.9928 -0.1190
vn 0.8718 0.2015 0.4466
vn 0.3977 0.2753 -0.8752
vn 0.9934 0.0000 -0.1146
vn 0.9934 -0.0039 -0.1142
vn -0.9472 0.0000 0.3208
vn -0.4117 0.9033 -0.1208
vn 0.0000 -0.4661 -0.8847
vn -0.1236 -0.4717 -0.8731
vn 0.3212 -0.3080 -0.8955
vn -0.9453 0.0062 0.3261
vn -0.8411 -0.0746 -0.5358
vn 0.9534 0.0233 0.3007
vn -0.9732 -0.0004 0.2301
vn -0.9934 -0.0039 -0.1142
vn -0.9117 0.0598 0.4065
vn 0.9472 0.0000 0.3208
vn 0.0000 -0.9925 -0.1226
vn -0.4523 0.8757 0.1694
vn -0.8850 -0.1058 0.4534
vn -0.2531 -0.9528 -0.1679
vn 0.9023 -0.0224 0.4305
vn 0.2531 -0.9528 -0.1679
vn 0.8068 -0.2951 0.5118
vn 0.7588 0.0259 0.6508
vn 0.0000 0.1485 0.9889
vn 0.4523 0.8757 0.1694
vn 0.0000 0.9989 0.0466
vn 0.0092 -0.9928 -0.1190
vn -0.3212 -0.3080 -0.8955
vn 0.0000 -0.3252 -0.9456
vn 0.4117 0.9033 -0.1208
vn 0.0000 0.9926 -0.1215
vn 0.1236 -0.4717 -0.8731
vn 0.0000 -0.9907 -0.1364
vn -0.3977 0.2753 -0.8752
vn 0.0000 0.2862 -0.9582
vn -0.7021 0.0627 0.7093
vn -0.0003 0.1472 0.9891
vn 0.7071 0.3539 0.6122
vn 0.0000 0.4825 0.8759
vn 0.6077 0.6356 0.4762
vn 0.0000 0.9264 0.3766
vn 0.0000 -0.0817 0.9967
vn 0.5062 0.0339 0.8617
vn 0.0000 0.0000 -1.0000
vn -0.3376 0.0000 -0.9413
vn -0.9590 0.0119 0.2833
vn 0.3376 0.0000 -0.9413
vn 0.9568 0.0370 0.2885
vn -0.8717 0.0000 -0.4901
vn -0.5062 0.0339 0.8617
vn -0.9934 0.0000 -0.1146
vn 0.8717 0.0000 -0.4901
vn 0.0000 -0.9353 -0.3540
vn 0.0285 -0.8984 -0.4382
vn 0.0000 0.9184 -0.3957
vn 0.3825 0.7695 -0.5115
vn 0.0023 -0.9927 -0.1205
vn 0.8411 -0.0746 -0.5358
vn -0.3825 0.7695 -0.5115
vn -0.0285 -0.8984 -0.4382
vn 0.8391 0.0784 -0.5382
vn 0.7286 0.0863 0.6795
vn -0.0000 0.1742 0.9847
vn -0.9684 -0.0223 0.2486
vn 0.9419 -0.1564 0.2972
vn 0.4008 -0.8048 0.4378
vn 0.9513 0.0499 0.3042
vn 0.9453 0.0062 0.3261
vn 0.8949 -0.3044 0.3264
vn 0.7026 0.0629 0.7088
vn -0.7653 -0.0086 0.6436
vn -0.7281 0.0861 0.6800
vn -0.0003 -0.1736 0.9848
vn -0.0000 0.9829 0.1839
vn 0.6913 -0.7065 0.1515
vn -0.9657 -0.0102 0.2593
vn -0.9514 0.0497 0.3040
vn 0.8308 0.4650 0.3057
vn -0.7584 0.0256 0.6512
vn 0.0457 -0.4838 -0.8740
vn -0.0457 -0.4838 -0.8740
vn -0.5742 -0.8187 -0.0073
vn 0.5742 -0.8187 -0.0074
vn -0.6911 -0.7067 0.1514
vn 0.6241 -0.6010 0.4993
vn 0.7811 -0.4473 -0.4357
vn -0.8124 -0.4230 -0.4015
vn 0.6863 -0.7119 0.1492
vn -0.7815 -0.4471 -0.4352
vn 0.8121 -0.4232 -0.4019
vn -0.6240 -0.6012 0.4992
vn -0.0000 -0.8192 0.5735
vn 0.9734 0.0001 0.2289
vn 0.9261 -0.0368 0.3754
vn -0.9349 0.0523 0.3511
vn 0.9348 0.0526 0.3513
vn -0.9262 -0.0368 0.3752
vn -0.8062 -0.2952 0.5128
vn 0.6290 -0.7640 0.1437
vn -0.4008 -0.8047 0.4379
vn 0.7756 -0.5987 0.1999
vn -0.0002 0.1742 0.9847
vn -0.6263 -0.7674 0.1371
vn 0.9684 -0.0223 0.2486
vn -0.9535 0.0230 0.3006
vn 0.8916 0.2771 0.3582
vn -0.6861 -0.7121 0.1491
vn -0.0004 -0.1736 0.9848
vn -0.6976 0.0656 0.7134
vn 0.6983 0.0659 0.7127
vn -0.9405 0.0709 0.3324
vn 0.7664 -0.0055 0.6423
vn -0.0023 -0.9927 -0.1205
vn 0.9404 0.0712 0.3324
vn -0.8917 0.2772 0.3579
vn 0.7228 0.4392 0.5336
vn 0.8571 0.4182 0.3008
vn -0.7220 0.4414 0.5328
vn -0.8570 0.4190 0.2999
vn -0.9481 -0.1317 0.2893
vn -0.8900 -0.2891 0.3525
vn -0.7619 -0.6156 0.2013
vn -0.7653 0.0546 0.6414
vn -0.9020 -0.0204 0.4314
vn 0.2634 0.0959 0.9599
vn 0.8851 -0.1065 0.4531
vn 0.7655 0.0540 0.6411
vn -0.0001 0.1742 0.9847
vn 0.9590 0.0119 0.2833
vn -0.9568 0.0370 0.2885
vn 0.4820 0.7321 0.4814
vn -0.8718 0.2015 0.4466
vn 0.9117 0.0598 0.4065
vn -0.4820 0.7321 0.4814
vn -0.2634 0.0959 0.9599
vn 0.9657 -0.0102 0.2593
vn 0.8732 -0.2152 0.4373
vn -0.9858 -0.1677 -0.0021
vn -0.9689 0.0583 -0.2405
vn -0.8735 -0.2144 0.4370
vn 0.9817 0.0124 -0.1901
vn -0.9679 -0.0578 0.2447
vn -0.9897 0.1028 0.0997
vn 0.6917 0.4977 -0.5233
vn 0.9687 0.0580 -0.2414
vn -0.8304 0.4664 0.3048
vn -0.7667 0.4260 -0.4804
vn 0.9899 0.1054 0.0949
vn 0.9681 -0.0577 0.2438
vn 0.9657 0.0823 -0.2463
vn 0.7640 0.4294 -0.4815
vn -0.9662 -0.0767 0.2459
vn 0.9858 -0.1680 -0.0014
vn -0.7497 -0.3824 0.5401
vn 0.9663 -0.0771 0.2456
vn -0.6982 0.4910 -0.5210
vn -0.9655 0.0837 -0.2464
vn -0.9817 0.0125 -0.1903
vn 0.7497 -0.3829 0.5398
usemtl Material
s off
f 140/1/1 137/2/1 6/3/1 22/4/1
f 50/5/2 22/6/2 6/7/2 39/8/2
f 62/9/3 51/10/3 4/11/3 42/12/3
f 117/13/4 122/14/4 91/15/4 77/16/4
f 142/17/5 133/18/5 3/19/5 41/20/5
f 48/21/6 24/22/6 1/23/6 40/24/6
f 61/25/7 54/26/7 7/27/7 43/28/7
f 52/29/8 55/30/8 13/31/8 86/32/8 85/33/8
f 45/34/9 16/35/9 8/36/9 44/37/9
f 58/38/10 51/39/10 8/40/10 27/41/10
f 26/42/11 25/43/11 74/44/11 73/45/11
f 25/43/12 84/46/12 96/47/12 74/44/12
f 19/48/13 30/49/13 9/50/13 2/51/13
f 81/52/14 80/53/14 101/54/14 102/55/14 17/56/14 14/57/14
f 53/58/15 56/59/15 12/60/15 5/61/15
f 123/62/16 65/63/16 76/64/16 120/65/16
f 72/66/17 106/67/17 103/68/17
f 82/69/18 81/52/18 14/57/18 56/59/18 53/58/18
f 141/70/19 137/71/19 16/35/19 45/34/19
f 43/28/20 7/27/20 15/72/20 46/73/20
f 122/14/21 121/74/21 94/75/21 91/15/21
f 27/41/22 8/40/22 16/76/22 35/77/22
f 108/78/23 72/66/23 127/79/23 131/80/23
f 60/81/24 52/29/24 85/33/24 84/46/24 25/43/24
f 69/82/25 125/83/25 132/84/25
f 53/85/26 59/86/26 26/42/26 79/87/26 82/88/26
f 100/89/27 109/90/27 99/91/27
f 68/92/28 69/82/28 132/84/28 111/93/28
f 37/94/29 38/95/29 31/96/29 32/97/29
f 7/27/30 28/98/30 36/99/30 15/72/30
f 28/98/31 27/41/31 35/77/31 36/99/31
f 73/45/11 74/44/11 33/100/11 34/101/11
f 121/74/32 119/102/32 75/103/32 94/75/32
f 5/61/33 12/60/33 29/104/33 20/105/33
f 20/105/34 29/104/34 30/49/34 19/48/34
f 54/26/35 57/106/35 28/98/35 7/27/35
f 57/106/36 58/38/36 27/41/36 28/98/36
f 79/87/37 26/42/37 73/45/37 98/107/37
f 59/86/38 60/81/38 25/43/38 26/42/38
f 42/12/39 4/11/39 23/108/39 47/109/39
f 47/109/40 23/108/40 24/22/40 48/21/40
f 92/110/41 66/111/41 63/112/41 78/113/41
f 93/114/42 64/115/42 66/111/42 92/110/42
f 41/20/43 3/19/43 21/116/43 49/117/43
f 49/117/44 21/116/44 22/6/44 50/5/44
f 133/18/45 139/118/45 21/119/45 3/19/45
f 139/118/46 140/1/46 22/4/46 21/119/46
f 31/96/47 49/117/47 50/5/47 32/97/47
f 11/120/48 41/20/48 49/117/48 31/96/48
f 29/104/49 47/109/49 48/21/49 30/49/49
f 12/60/50 42/12/50 47/109/50 29/104/50
f 13/31/20 43/28/20 46/73/20 18/121/20
f 138/122/51 141/70/51 45/34/51 17/56/51
f 17/56/9 45/34/9 44/37/9 14/57/9
f 55/30/7 61/25/7 43/28/7 13/31/7
f 30/49/52 48/21/52 40/24/52 9/50/52
f 134/123/53 142/17/53 41/20/53 11/120/53
f 56/59/54 62/9/54 42/12/54 12/60/54
f 32/97/55 50/5/55 39/8/55 10/124/55
f 14/57/56 44/37/56 62/9/56 56/59/56
f 9/50/57 40/24/57 61/25/57 55/30/57
f 20/125/58 19/126/58 60/81/58 59/86/58
f 5/127/59 20/125/59 59/86/59 53/85/59
f 24/128/60 23/129/60 58/38/60 57/106/60
f 1/23/61 24/128/61 57/106/61 54/26/61
f 33/100/62 89/130/62 119/102/62 121/74/62
f 2/51/63 9/50/63 55/30/63 52/29/63
f 23/129/64 4/131/64 51/39/64 58/38/64
f 19/126/65 2/51/65 52/29/65 60/81/65
f 40/24/66 1/23/66 54/26/66 61/25/66
f 44/37/56 8/36/56 51/10/56 62/9/56
f 113/132/67 114/133/67 69/82/67 68/92/67
f 136/134/68 135/135/68 38/95/68 37/94/68
f 162/136/69 158/137/69 10/138/69 138/122/69
f 105/139/70 130/140/70 107/141/70 71/142/70
f 135/135/71 107/143/71 155/144/71 157/145/71 38/95/71
f 146/146/72 148/147/72 123/62/72 120/65/72 90/148/72
f 83/149/73 86/32/73 13/31/73 18/121/73 100/150/73 99/151/73
f 109/152/74 130/140/74 105/139/74
f 76/64/75 65/63/75 64/115/75 93/114/75
f 101/54/76 154/153/76 153/154/76 106/67/76 110/155/76
f 116/156/77 115/157/77 70/158/77 67/159/77
f 115/157/78 113/132/78 68/92/78 70/158/78
f 69/160/79 67/161/79 70/162/79 68/163/79
f 75/103/80 119/102/80 120/65/80 76/64/80
f 102/164/81 163/165/81 162/136/81 138/122/81 17/56/81
f 118/166/82 124/167/82 145/168/82 144/169/82 87/170/82
f 104/171/83 126/172/83 123/62/83 148/147/83 147/173/83
f 67/159/84 70/158/84 112/174/84 131/175/84
f 98/107/85 73/45/85 34/101/85 88/176/85
f 74/44/86 96/47/86 89/130/86 33/100/86
f 79/87/87 80/177/87 81/178/87 82/179/87
f 83/149/88 84/180/88 85/33/88 86/32/88
f 117/13/89 77/16/89 78/181/89 118/182/89
f 94/75/90 75/103/90 76/183/90 93/184/90
f 96/47/91 84/46/91 83/149/91 95/185/91
f 98/107/92 88/176/92 87/186/92 97/187/92
f 119/102/93 89/130/93 90/148/93 120/65/93
f 79/188/94 98/189/94 97/190/94 80/53/94
f 89/130/95 96/47/95 95/185/95 90/148/95
f 77/16/96 91/15/96 92/191/96 78/192/96
f 91/15/97 94/75/97 93/193/97 92/194/97
f 105/139/98 71/142/98 104/195/98
f 95/185/99 83/149/99 99/151/99 151/196/99 150/197/99
f 87/170/100 144/169/100 152/198/100 97/190/100
f 90/148/101 95/185/101 150/197/101 146/199/101
f 97/190/102 152/198/102 154/153/102 101/54/102 80/53/102
f 101/54/103 110/200/103 102/55/103
f 107/141/104 130/140/104 165/201/104 155/202/104
f 108/203/105 136/134/105 37/94/105 160/204/105 159/205/105
f 166/206/106 165/201/106 130/140/106 109/152/106 100/89/106
f 70/158/107 68/92/107 111/93/107 112/174/107
f 161/207/108 129/208/108 108/209/108 159/210/108
f 156/211/109 164/212/109 134/123/109 11/120/109
f 78/213/110 63/214/110 124/167/110 118/166/110
f 126/172/111 125/83/111 69/82/111 114/133/111
f 88/176/112 117/13/112 118/182/112 87/215/112
f 66/111/113 64/115/113 113/132/113 115/157/113
f 63/112/114 66/111/114 115/157/114 116/156/114
f 64/115/115 65/63/115 114/133/115 113/132/115
f 127/79/116 72/66/116 103/68/116 128/216/116
f 34/101/21 33/100/21 121/74/21 122/14/21
f 109/152/117 105/139/117 149/217/117 151/196/117 99/151/117
f 88/176/118 34/101/118 122/14/118 117/13/118
f 104/171/119 71/142/119 125/83/119 126/172/119
f 67/218/120 127/79/120 128/216/120 116/219/120
f 105/139/121 104/195/121 147/220/121 149/217/121
f 114/133/122 65/63/122 123/62/122 126/172/122
f 153/154/123 143/221/123 103/222/123 106/67/123
f 63/112/124 116/156/124 128/216/124 124/167/124
f 72/66/125 108/78/125 129/208/125 106/67/125
f 106/67/126 129/208/126 110/223/126
f 110/223/127 129/208/127 161/207/127 163/165/127 102/164/127
f 112/174/128 136/134/128 108/78/128 131/175/128
f 131/80/129 127/79/129 67/218/129
f 38/95/130 157/224/130 156/211/130 11/120/130 31/96/130
f 132/84/131 125/83/131 71/142/131 107/225/131
f 132/84/132 107/143/132 135/135/132 111/93/132
f 112/174/133 111/93/133 135/135/133 136/134/133
f 18/121/134 46/73/134 142/17/134 134/123/134
f 10/138/135 39/226/135 141/70/135 138/122/135
f 36/99/46 35/77/46 140/1/46 139/118/46
f 15/72/136 36/99/136 139/118/136 133/18/136
f 39/226/137 6/227/137 137/71/137 141/70/137
f 46/73/138 15/72/138 133/18/138 142/17/138
f 35/77/139 16/76/139 137/2/139 140/1/139
f 158/228/140 160/204/140 37/94/140 32/97/140 10/124/140
f 164/212/141 166/229/141 100/150/141 18/121/141 134/123/141
f 173/230/142 148/147/142 146/146/142 175/231/142
f 173/232/143 174/233/143 147/220/143 148/147/143
f 174/234/144 176/235/144 149/217/144 147/220/144
f 167/236/145 168/237/145 144/169/145 145/168/145
f 167/236/146 172/238/146 159/205/146 160/204/146
f 168/239/147 169/240/147 152/198/147 144/169/147
f 152/198/148 163/165/148 162/136/148 154/153/148
f 171/241/149 170/242/149 163/165/149 161/207/149
f 171/241/150 172/243/150 143/221/150 153/154/150
f 103/68/151 143/244/151 145/168/151 124/167/151 128/216/151
f 176/235/152 177/245/152 151/196/152 149/217/152
f 151/196/153 164/212/153 166/229/153 150/197/153
f 175/246/154 146/199/154 150/197/154 178/247/154
f 161/207/155 159/210/155 172/243/155 171/241/155
f 153/154/156 154/153/156 170/242/156 171/241/156
f 158/137/157 162/136/157 169/240/157 168/239/157
f 145/168/158 143/221/158 172/238/158 167/236/158
f 160/204/159 158/228/159 168/237/159 167/236/159
f 156/211/160 175/246/160 178/247/160 164/212/160
f 165/201/161 166/206/161 177/245/161 176/235/161
f 155/202/162 165/201/162 176/235/162 174/234/162
f 157/145/163 155/144/163 174/233/163 173/232/163
f 157/224/164 173/230/164 175/231/164 156/211/164
